<svg viewBox="0 0 119 26" fill="none" xmlns="http://www.w3.org/2000/svg">
  <path d="M8.028 1.878A2.81 2.81 0 0 1 10.462.473h16.316a1.405 1.405 0 0 1 1.217 2.107l-1.418 2.458A3.044 3.044 0 0 1 23.94 6.56H8.165a1.64 1.64 0 0 1-1.42-2.458l1.283-2.225Z" fill="#FC7823"/>
  <path d="M21.267 10.073H2.59a1.522 1.522 0 0 0-1.33 2.262L7.6 23.724a3.512 3.512 0 0 0 3.069 1.803h16.11c.97 0 1.591-1.032 1.137-1.89l-1.17-2.212a3.512 3.512 0 0 0-3.105-1.869H14.18a2.342 2.342 0 0 1-1.938-1.027l-.778-1.147a.82.82 0 0 1 .678-1.28h6.516a2.81 2.81 0 0 0 2.458-1.449l1.38-2.495a1.405 1.405 0 0 0-1.229-2.085Zm75.842 15.814a1.89 1.89 0 0 1-1.76-2.583L103.483 2.6a1.89 1.89 0 0 1 1.76-1.2h2.106c.78 0 1.479.478 1.762 1.204l8.075 20.706a1.89 1.89 0 0 1-1.761 2.578h-1.277a1.892 1.892 0 0 1-1.77-1.225l-4.506-11.964c-.14-.396-.315-.886-.525-1.469l-.594-1.854-.595-1.854c-.105-.39-.2-.732-.286-1.026a.36.36 0 0 1 .329-.46.35.35 0 0 1 .352.446c-.109.376-.229.77-.36 1.18-.163.56-.35 1.143-.56 1.75a31.06 31.06 0 0 1-.594 1.748c-.187.56-.373 1.096-.56 1.61l-4.472 11.892a1.89 1.89 0 0 1-1.77 1.226H97.11Zm4.521-5.143a1.891 1.891 0 0 1-1.75-2.608l.2-.486a1.89 1.89 0 0 1 1.749-1.174h8.632c.763 0 1.451.459 1.745 1.162l.203.486a1.89 1.89 0 0 1-1.745 2.62h-9.034Zm-29.233 5.143a1.89 1.89 0 0 1-1.891-1.891V3.29a1.89 1.89 0 0 1 1.89-1.89h8.185c1.772 0 3.393.302 4.862.909 1.47.583 2.729 1.422 3.778 2.518 1.05 1.073 1.854 2.368 2.414 3.883.56 1.493.84 3.137.84 4.933 0 1.819-.28 3.475-.84 4.967-.56 1.493-1.364 2.787-2.414 3.883-1.05 1.073-2.309 1.913-3.778 2.519-1.446.583-3.067.875-4.862.875h-8.184Zm3.356-4.525a.198.198 0 1 1-.198-.198h4.85c1.05 0 1.983-.175 2.8-.525a5.817 5.817 0 0 0 2.133-1.504 6.678 6.678 0 0 0 1.364-2.379c.304-.933.455-1.97.455-3.113s-.151-2.169-.455-3.079c-.303-.932-.757-1.725-1.364-2.378a5.64 5.64 0 0 0-2.134-1.54c-.816-.35-1.749-.524-2.798-.524H75.54a.213.213 0 1 1 .213-.213v15.453Zm-27.462 4.525a.945.945 0 0 1-.945-.946V.945c0-.522.423-.945.945-.945h3.042c.522 0 .945.423.945.945v9.958a.389.389 0 0 1-.235.357c-.3.129-.602-.144-.463-.44a5.381 5.381 0 0 1 1.083-1.515c.676-.7 1.48-1.26 2.414-1.679.933-.42 1.9-.63 2.903-.63 1.4 0 2.565.28 3.498.84.956.56 1.668 1.41 2.134 2.554.49 1.119.735 2.518.735 4.197v10.354a.946.946 0 0 1-.946.946h-3.076a.946.946 0 0 1-.946-.946V14.937c0-.84-.116-1.539-.35-2.099-.233-.56-.583-.967-1.049-1.224-.466-.257-1.06-.373-1.784-.35-.56 0-1.073.093-1.54.28a3.806 3.806 0 0 0-1.258.735c-.35.326-.619.7-.805 1.119a3.41 3.41 0 0 0-.28 1.4V24.94a.945.945 0 0 1-.945.946H48.29Zm-12.682 0a.945.945 0 0 1-.946-.946V3.64c0-.522.424-.945.946-.945h3.076c.523 0 .946.423.946.945v21.302a.945.945 0 0 1-.946.946H35.61Zm-3.463-14.063a.945.945 0 0 1-.946-.946V8.327c0-.523.424-.946.946-.946h10.352c.523 0 .946.423.946.946v2.551a.945.945 0 0 1-.946.946H32.146Z" fill="#000"/>
</svg>
