<svg viewBox="0 0 119 26" fill="none" xmlns="http://www.w3.org/2000/svg">
  <path d="M8.028 1.878A2.81 2.81 0 0 1 10.462.473h16.316a1.405 1.405 0 0 1 1.217 2.107l-1.418 2.458A3.044 3.044 0 0 1 23.94 6.56H8.165a1.64 1.64 0 0 1-1.42-2.458l1.283-2.225Z" fill="#FC7823"/>
  <path d="M21.266 10.073H2.59a1.522 1.522 0 0 0-1.33 2.262L7.6 23.724a3.512 3.512 0 0 0 3.07 1.803h16.11c.97 0 1.591-1.033 1.137-1.89l-1.17-2.212a3.512 3.512 0 0 0-3.105-1.869H14.18a2.342 2.342 0 0 1-1.938-1.027l-.778-1.147a.82.82 0 0 1 .678-1.28h6.516a2.81 2.81 0 0 0 2.458-1.449l1.38-2.495a1.405 1.405 0 0 0-1.229-2.085Zm75.842 15.813a1.891 1.891 0 0 1-1.76-2.582L103.483 2.6a1.89 1.89 0 0 1 1.76-1.2h2.106c.78 0 1.479.478 1.762 1.204l8.075 20.705a1.89 1.89 0 0 1-1.762 2.578h-1.276a1.891 1.891 0 0 1-1.77-1.224l-4.506-11.964c-.14-.396-.315-.886-.525-1.469-.186-.583-.385-1.201-.595-1.854l-.594-1.854c-.105-.39-.201-.732-.286-1.026a.359.359 0 0 1 .329-.46.35.35 0 0 1 .351.446c-.108.376-.228.77-.359 1.18-.163.56-.35 1.143-.56 1.749-.186.606-.385 1.19-.595 1.75a63.937 63.937 0 0 1-.559 1.608l-4.472 11.893a1.89 1.89 0 0 1-1.77 1.225h-1.129Zm4.522-5.142a1.891 1.891 0 0 1-1.75-2.608l.2-.486a1.89 1.89 0 0 1 1.749-1.174h8.632c.762 0 1.45.458 1.745 1.162l.203.486a1.892 1.892 0 0 1-1.745 2.62h-9.034Zm-29.233 5.142a1.891 1.891 0 0 1-1.89-1.89V3.29a1.89 1.89 0 0 1 1.89-1.89h8.184c1.773 0 3.393.302 4.863.909 1.469.583 2.728 1.422 3.778 2.518 1.05 1.073 1.854 2.367 2.413 3.883.56 1.493.84 3.137.84 4.933 0 1.819-.28 3.475-.84 4.967-.56 1.493-1.364 2.787-2.413 3.883-1.05 1.073-2.31 1.913-3.778 2.519-1.446.583-3.067.874-4.863.874h-8.184Zm3.357-4.524a.198.198 0 1 1-.198-.198h4.85c1.05 0 1.983-.175 2.799-.525a5.814 5.814 0 0 0 2.134-1.504 6.678 6.678 0 0 0 1.364-2.379c.303-.933.455-1.97.455-3.113s-.152-2.17-.455-3.079c-.303-.932-.758-1.725-1.364-2.378a5.638 5.638 0 0 0-2.134-1.54c-.816-.35-1.75-.524-2.799-.524h-4.865a.213.213 0 1 1 .213-.213v15.453Zm-27.463 4.525a.945.945 0 0 1-.945-.946V.945c0-.522.423-.945.946-.945h3.041c.522 0 .945.423.945.945v9.958a.389.389 0 0 1-.235.357c-.3.129-.602-.144-.463-.44a5.381 5.381 0 0 1 1.083-1.515 7.717 7.717 0 0 1 2.414-1.679c.933-.42 1.9-.63 2.904-.63 1.399 0 2.565.28 3.498.84.956.56 1.667 1.41 2.134 2.554.49 1.119.734 2.518.734 4.197v10.354a.946.946 0 0 1-.945.946h-3.077a.945.945 0 0 1-.945-.946V14.937c0-.84-.117-1.539-.35-2.099-.233-.56-.583-.967-1.05-1.224-.466-.257-1.06-.373-1.784-.35a4.1 4.1 0 0 0-1.539.28 3.806 3.806 0 0 0-1.26.735 3.44 3.44 0 0 0-.804 1.119 3.41 3.41 0 0 0-.28 1.4V24.94a.945.945 0 0 1-.945.946h-3.077Zm-12.682 0a.945.945 0 0 1-.946-.946V3.64c0-.522.424-.945.946-.945h3.076c.522 0 .946.423.946.945v21.302a.945.945 0 0 1-.946.946H35.61Zm-3.464-14.063a.945.945 0 0 1-.945-.946V8.327c0-.523.423-.946.945-.946h10.353c.522 0 .946.423.946.946v2.551a.945.945 0 0 1-.946.946H32.146Z" fill="#fff"/>
</svg>
